<svg id="visual" viewBox="0 0 900 600" width="900" height="600" xmlns="http://www.w3.org/2000/svg" xmlns:xlink="http://www.w3.org/1999/xlink" version="1.1"><g stroke-width="1" stroke-linejoin="bevel"><path d="M465.9 258L493.9 336L502.9 294Z" fill="#9e49e0" stroke="#9e49e0"></path><path d="M465.9 258L376.1 332L493.9 336Z" fill="#8d48e2" stroke="#8d48e2"></path><path d="M465.9 258L389.1 210L376.1 332Z" fill="#bc4cda" stroke="#bc4cda"></path><path d="M376.1 332L420.1 427L493.9 336Z" fill="#d551d4" stroke="#d551d4"></path><path d="M390.1 130L372.3 198L389.1 210Z" fill="#7948e5" stroke="#7948e5"></path><path d="M389.1 210L297.3 298L376.1 332Z" fill="#f35ecc" stroke="#f35ecc"></path><path d="M570.7 398L592.7 277L493.9 336Z" fill="#f35ecc" stroke="#f35ecc"></path><path d="M493.9 336L592.7 277L502.9 294Z" fill="#d551d4" stroke="#d551d4"></path><path d="M502.9 294L593.7 268L465.9 258Z" fill="#ea59cf" stroke="#ea59cf"></path><path d="M465.9 258L473.9 123L389.1 210Z" fill="#ea59cf" stroke="#ea59cf"></path><path d="M294.5 374L375.1 422L376.1 332Z" fill="#9e49e0" stroke="#9e49e0"></path><path d="M376.1 332L375.1 422L420.1 427Z" fill="#6148e7" stroke="#6148e7"></path><path d="M592.7 277L593.7 268L502.9 294Z" fill="#6148e7" stroke="#6148e7"></path><path d="M487.9 459L570.7 398L493.9 336Z" fill="#6148e7" stroke="#6148e7"></path><path d="M451.1 498L487.9 459L420.1 427Z" fill="#c94ed7" stroke="#c94ed7"></path><path d="M420.1 427L487.9 459L493.9 336Z" fill="#6148e7" stroke="#6148e7"></path><path d="M592.7 277L605.5 257L593.7 268Z" fill="#6148e7" stroke="#6148e7"></path><path d="M494.9 124L473.9 123L465.9 258Z" fill="#bc4cda" stroke="#bc4cda"></path><path d="M661.5 247L605.5 257L592.7 277Z" fill="#6148e7" stroke="#6148e7"></path><path d="M372.3 198L297.3 298L389.1 210Z" fill="#9e49e0" stroke="#9e49e0"></path><path d="M297.3 298L294.5 374L376.1 332Z" fill="#bc4cda" stroke="#bc4cda"></path><path d="M294.5 374L313.3 421L375.1 422Z" fill="#9e49e0" stroke="#9e49e0"></path><path d="M372.3 493L451.1 498L420.1 427Z" fill="#bc4cda" stroke="#bc4cda"></path><path d="M494.9 124L465.9 258L587.7 159Z" fill="#bc4cda" stroke="#bc4cda"></path><path d="M587.7 159L465.9 258L593.7 268Z" fill="#c94ed7" stroke="#c94ed7"></path><path d="M473.9 123L390.1 130L389.1 210Z" fill="#9e49e0" stroke="#9e49e0"></path><path d="M281.3 217L262.5 281L297.3 298Z" fill="#df55d1" stroke="#df55d1"></path><path d="M372.3 493L420.1 427L375.1 422Z" fill="#7948e5" stroke="#7948e5"></path><path d="M546.7 497L613.5 426L570.7 398Z" fill="#ae4add" stroke="#ae4add"></path><path d="M281.3 217L297.3 298L372.3 198Z" fill="#7948e5" stroke="#7948e5"></path><path d="M297.3 298L262.5 281L294.5 374Z" fill="#bc4cda" stroke="#bc4cda"></path><path d="M258.5 118L281.3 217L372.3 198Z" fill="#bc4cda" stroke="#bc4cda"></path><path d="M605.5 257L587.7 159L593.7 268Z" fill="#8d48e2" stroke="#8d48e2"></path><path d="M546.7 497L570.7 398L487.9 459Z" fill="#8d48e2" stroke="#8d48e2"></path><path d="M570.7 398L690.4 339L592.7 277Z" fill="#7948e5" stroke="#7948e5"></path><path d="M297.5 458L372.3 493L375.1 422Z" fill="#c94ed7" stroke="#c94ed7"></path><path d="M451.1 498L546.7 497L487.9 459Z" fill="#7948e5" stroke="#7948e5"></path><path d="M690.4 339L661.5 247L592.7 277Z" fill="#8d48e2" stroke="#8d48e2"></path><path d="M605.5 257L661.5 247L587.7 159Z" fill="#d551d4" stroke="#d551d4"></path><path d="M473.9 123L419.1 93L390.1 130Z" fill="#ae4add" stroke="#ae4add"></path><path d="M390.1 130L258.5 118L372.3 198Z" fill="#f35ecc" stroke="#f35ecc"></path><path d="M452.9 0L419.1 93L473.9 123Z" fill="#df55d1" stroke="#df55d1"></path><path d="M538.7 31L473.9 123L494.9 124Z" fill="#ea59cf" stroke="#ea59cf"></path><path d="M214.6 386L297.5 458L313.3 421Z" fill="#df55d1" stroke="#df55d1"></path><path d="M313.3 421L297.5 458L375.1 422Z" fill="#c94ed7" stroke="#c94ed7"></path><path d="M214.6 386L313.3 421L294.5 374Z" fill="#d551d4" stroke="#d551d4"></path><path d="M419.1 93L378.3 95L390.1 130Z" fill="#ea59cf" stroke="#ea59cf"></path><path d="M613.5 426L690.4 339L570.7 398Z" fill="#c94ed7" stroke="#c94ed7"></path><path d="M661.5 247L620.5 135L587.7 159Z" fill="#8d48e2" stroke="#8d48e2"></path><path d="M587.7 159L538.7 31L494.9 124Z" fill="#df55d1" stroke="#df55d1"></path><path d="M546.7 497L622.7 481L613.5 426Z" fill="#ea59cf" stroke="#ea59cf"></path><path d="M613.5 426L701.5 406L690.4 339Z" fill="#df55d1" stroke="#df55d1"></path><path d="M148.6 273L214.6 386L262.5 281Z" fill="#bc4cda" stroke="#bc4cda"></path><path d="M262.5 281L214.6 386L294.5 374Z" fill="#c94ed7" stroke="#c94ed7"></path><path d="M372.3 493L375.3 554L451.1 498Z" fill="#8d48e2" stroke="#8d48e2"></path><path d="M451.1 498L525.9 564L546.7 497Z" fill="#ae4add" stroke="#ae4add"></path><path d="M546.7 497L590.7 600L622.7 481Z" fill="#8d48e2" stroke="#8d48e2"></path><path d="M297.5 458L375.3 554L372.3 493Z" fill="#6148e7" stroke="#6148e7"></path><path d="M341.3 600L375.3 554L297.5 458Z" fill="#ae4add" stroke="#ae4add"></path><path d="M682.5 494L701.5 406L613.5 426Z" fill="#9e49e0" stroke="#9e49e0"></path><path d="M488.9 600L525.9 564L451.1 498Z" fill="#d551d4" stroke="#d551d4"></path><path d="M378.3 95L258.5 118L390.1 130Z" fill="#6148e7" stroke="#6148e7"></path><path d="M281.3 217L203.5 182L262.5 281Z" fill="#6148e7" stroke="#6148e7"></path><path d="M214.6 386L235.5 480L297.5 458Z" fill="#7948e5" stroke="#7948e5"></path><path d="M258.5 118L203.5 182L281.3 217Z" fill="#c94ed7" stroke="#c94ed7"></path><path d="M761.4 333L711.4 179L661.5 247Z" fill="#9e49e0" stroke="#9e49e0"></path><path d="M661.5 247L711.4 179L620.5 135Z" fill="#9e49e0" stroke="#9e49e0"></path><path d="M716.4 175L711.4 179L761.4 333Z" fill="#c94ed7" stroke="#c94ed7"></path><path d="M631.5 69L538.7 31L620.5 135Z" fill="#9e49e0" stroke="#9e49e0"></path><path d="M620.5 135L538.7 31L587.7 159Z" fill="#f35ecc" stroke="#f35ecc"></path><path d="M419.1 93L402.1 0L378.3 95Z" fill="#c94ed7" stroke="#c94ed7"></path><path d="M378.3 95L273.5 77L258.5 118Z" fill="#9e49e0" stroke="#9e49e0"></path><path d="M761.4 333L661.5 247L690.4 339Z" fill="#c94ed7" stroke="#c94ed7"></path><path d="M711.4 179L716.4 175L620.5 135Z" fill="#f35ecc" stroke="#f35ecc"></path><path d="M327.3 0L273.5 77L378.3 95Z" fill="#d551d4" stroke="#d551d4"></path><path d="M258.5 118L206.6 119L203.5 182Z" fill="#f35ecc" stroke="#f35ecc"></path><path d="M622.7 481L682.5 494L613.5 426Z" fill="#c94ed7" stroke="#c94ed7"></path><path d="M698.4 528L682.5 494L622.7 481Z" fill="#d551d4" stroke="#d551d4"></path><path d="M716.4 175L631.5 69L620.5 135Z" fill="#ea59cf" stroke="#ea59cf"></path><path d="M421.1 600L488.9 600L451.1 498Z" fill="#6148e7" stroke="#6148e7"></path><path d="M525.9 564L590.7 600L546.7 497Z" fill="#df55d1" stroke="#df55d1"></path><path d="M341.3 600L421.1 600L375.3 554Z" fill="#df55d1" stroke="#df55d1"></path><path d="M375.3 554L421.1 600L451.1 498Z" fill="#8d48e2" stroke="#8d48e2"></path><path d="M111.8 399L174.6 416L214.6 386Z" fill="#f35ecc" stroke="#f35ecc"></path><path d="M214.6 386L174.6 416L235.5 480Z" fill="#d551d4" stroke="#d551d4"></path><path d="M538.7 31L452.9 0L473.9 123Z" fill="#f35ecc" stroke="#f35ecc"></path><path d="M775.2 385L761.4 333L701.5 406Z" fill="#7948e5" stroke="#7948e5"></path><path d="M701.5 406L761.4 333L690.4 339Z" fill="#bc4cda" stroke="#bc4cda"></path><path d="M203.5 182L148.6 273L262.5 281Z" fill="#df55d1" stroke="#df55d1"></path><path d="M452.9 0L402.1 0L419.1 93Z" fill="#7948e5" stroke="#7948e5"></path><path d="M273.5 77L206.6 119L258.5 118Z" fill="#bc4cda" stroke="#bc4cda"></path><path d="M203.5 182L124.6 190L148.6 273Z" fill="#9e49e0" stroke="#9e49e0"></path><path d="M213.5 600L341.3 600L235.5 480Z" fill="#6148e7" stroke="#6148e7"></path><path d="M235.5 480L341.3 600L297.5 458Z" fill="#d551d4" stroke="#d551d4"></path><path d="M488.9 600L590.7 600L525.9 564Z" fill="#6148e7" stroke="#6148e7"></path><path d="M666.5 600L698.4 528L622.7 481Z" fill="#ae4add" stroke="#ae4add"></path><path d="M754.4 481L775.2 385L701.5 406Z" fill="#bc4cda" stroke="#bc4cda"></path><path d="M754.4 481L701.5 406L682.5 494Z" fill="#df55d1" stroke="#df55d1"></path><path d="M402.1 0L327.3 0L378.3 95Z" fill="#9e49e0" stroke="#9e49e0"></path><path d="M273.5 77L200.6 34L206.6 119Z" fill="#bc4cda" stroke="#bc4cda"></path><path d="M631.5 69L590.7 0L538.7 31Z" fill="#ae4add" stroke="#ae4add"></path><path d="M538.7 31L590.7 0L452.9 0Z" fill="#6148e7" stroke="#6148e7"></path><path d="M644.5 0L590.7 0L631.5 69Z" fill="#f35ecc" stroke="#f35ecc"></path><path d="M775.2 385L797.2 345L761.4 333Z" fill="#f35ecc" stroke="#f35ecc"></path><path d="M854.2 274L794.2 146L716.4 175Z" fill="#8d48e2" stroke="#8d48e2"></path><path d="M900 416L797.2 345L775.2 385Z" fill="#8d48e2" stroke="#8d48e2"></path><path d="M698.4 528L754.4 481L682.5 494Z" fill="#9e49e0" stroke="#9e49e0"></path><path d="M73.8 124L124.6 190L206.6 119Z" fill="#f35ecc" stroke="#f35ecc"></path><path d="M206.6 119L124.6 190L203.5 182Z" fill="#f35ecc" stroke="#f35ecc"></path><path d="M148.6 273L111.8 399L214.6 386Z" fill="#c94ed7" stroke="#c94ed7"></path><path d="M77.8 330L111.8 399L148.6 273Z" fill="#bc4cda" stroke="#bc4cda"></path><path d="M174.6 416L139.6 517L235.5 480Z" fill="#df55d1" stroke="#df55d1"></path><path d="M717.4 0L644.5 0L631.5 69Z" fill="#6148e7" stroke="#6148e7"></path><path d="M717.4 0L631.5 69L786.4 47Z" fill="#9e49e0" stroke="#9e49e0"></path><path d="M590.7 600L666.5 600L622.7 481Z" fill="#d551d4" stroke="#d551d4"></path><path d="M698.4 528L728.4 600L754.4 481Z" fill="#ea59cf" stroke="#ea59cf"></path><path d="M240.5 0L200.6 34L273.5 77Z" fill="#d551d4" stroke="#d551d4"></path><path d="M327.3 0L240.5 0L273.5 77Z" fill="#f35ecc" stroke="#f35ecc"></path><path d="M854.2 274L716.4 175L761.4 333Z" fill="#8d48e2" stroke="#8d48e2"></path><path d="M37.8 252L77.8 330L148.6 273Z" fill="#9e49e0" stroke="#9e49e0"></path><path d="M76.8 443L139.6 517L174.6 416Z" fill="#8d48e2" stroke="#8d48e2"></path><path d="M76.8 443L174.6 416L111.8 399Z" fill="#8d48e2" stroke="#8d48e2"></path><path d="M139.6 517L213.5 600L235.5 480Z" fill="#8d48e2" stroke="#8d48e2"></path><path d="M863.2 534L808.2 456L754.4 481Z" fill="#ea59cf" stroke="#ea59cf"></path><path d="M754.4 481L808.2 456L775.2 385Z" fill="#ea59cf" stroke="#ea59cf"></path><path d="M797.2 345L854.2 274L761.4 333Z" fill="#bc4cda" stroke="#bc4cda"></path><path d="M900 269L854.2 274L900 416Z" fill="#bc4cda" stroke="#bc4cda"></path><path d="M666.5 600L728.4 600L698.4 528Z" fill="#f35ecc" stroke="#f35ecc"></path><path d="M786.4 47L631.5 69L716.4 175Z" fill="#f35ecc" stroke="#f35ecc"></path><path d="M0 405L76.8 443L111.8 399Z" fill="#d551d4" stroke="#d551d4"></path><path d="M829.2 99L786.4 47L794.2 146Z" fill="#d551d4" stroke="#d551d4"></path><path d="M794.2 146L786.4 47L716.4 175Z" fill="#6148e7" stroke="#6148e7"></path><path d="M0 219L37.8 252L124.6 190Z" fill="#bc4cda" stroke="#bc4cda"></path><path d="M124.6 190L37.8 252L148.6 273Z" fill="#ae4add" stroke="#ae4add"></path><path d="M77.8 330L0 405L111.8 399Z" fill="#ea59cf" stroke="#ea59cf"></path><path d="M200.6 34L73.8 124L206.6 119Z" fill="#ae4add" stroke="#ae4add"></path><path d="M134.6 0L73.8 124L200.6 34Z" fill="#bc4cda" stroke="#bc4cda"></path><path d="M104.8 573L150.6 600L139.6 517Z" fill="#ae4add" stroke="#ae4add"></path><path d="M139.6 517L150.6 600L213.5 600Z" fill="#d551d4" stroke="#d551d4"></path><path d="M900 152L829.2 99L794.2 146Z" fill="#9e49e0" stroke="#9e49e0"></path><path d="M76.8 443L104.8 573L139.6 517Z" fill="#f35ecc" stroke="#f35ecc"></path><path d="M240.5 0L134.6 0L200.6 34Z" fill="#ae4add" stroke="#ae4add"></path><path d="M900 416L854.2 274L797.2 345Z" fill="#ea59cf" stroke="#ea59cf"></path><path d="M854.2 274L900 152L794.2 146Z" fill="#7948e5" stroke="#7948e5"></path><path d="M900 269L900 253L854.2 274Z" fill="#ea59cf" stroke="#ea59cf"></path><path d="M37.8 252L0 322L77.8 330Z" fill="#df55d1" stroke="#df55d1"></path><path d="M76.8 443L0 562L104.8 573Z" fill="#bc4cda" stroke="#bc4cda"></path><path d="M0 219L0 322L37.8 252Z" fill="#8d48e2" stroke="#8d48e2"></path><path d="M0 600L105.8 600L104.8 573Z" fill="#d551d4" stroke="#d551d4"></path><path d="M104.8 573L105.8 600L150.6 600Z" fill="#ae4add" stroke="#ae4add"></path><path d="M900 429L900 416L808.2 456Z" fill="#6148e7" stroke="#6148e7"></path><path d="M808.2 456L900 416L775.2 385Z" fill="#ea59cf" stroke="#ea59cf"></path><path d="M863.2 534L900 429L808.2 456Z" fill="#9e49e0" stroke="#9e49e0"></path><path d="M0 107L0 219L73.8 124Z" fill="#9e49e0" stroke="#9e49e0"></path><path d="M73.8 124L0 219L124.6 190Z" fill="#7948e5" stroke="#7948e5"></path><path d="M134.6 0L105.8 0L73.8 124Z" fill="#d551d4" stroke="#d551d4"></path><path d="M0 322L0 405L77.8 330Z" fill="#d551d4" stroke="#d551d4"></path><path d="M834.2 600L863.2 534L754.4 481Z" fill="#ae4add" stroke="#ae4add"></path><path d="M900 253L900 152L854.2 274Z" fill="#8d48e2" stroke="#8d48e2"></path><path d="M829.2 99L834.2 0L786.4 47Z" fill="#8d48e2" stroke="#8d48e2"></path><path d="M0 405L0 451L76.8 443Z" fill="#bc4cda" stroke="#bc4cda"></path><path d="M728.4 600L834.2 600L754.4 481Z" fill="#6148e7" stroke="#6148e7"></path><path d="M105.8 0L28.8 84L73.8 124Z" fill="#bc4cda" stroke="#bc4cda"></path><path d="M900 89L834.2 0L829.2 99Z" fill="#ae4add" stroke="#ae4add"></path><path d="M786.4 47L834.2 0L717.4 0Z" fill="#8d48e2" stroke="#8d48e2"></path><path d="M900 152L900 89L829.2 99Z" fill="#ae4add" stroke="#ae4add"></path><path d="M0 39L0 107L28.8 84Z" fill="#9e49e0" stroke="#9e49e0"></path><path d="M28.8 84L0 107L73.8 124Z" fill="#f35ecc" stroke="#f35ecc"></path><path d="M834.2 600L900 567L863.2 534Z" fill="#df55d1" stroke="#df55d1"></path><path d="M863.2 534L900 567L900 429Z" fill="#d551d4" stroke="#d551d4"></path><path d="M0 451L0 562L76.8 443Z" fill="#ea59cf" stroke="#ea59cf"></path><path d="M105.8 0L0 39L28.8 84Z" fill="#8d48e2" stroke="#8d48e2"></path><path d="M834.2 600L900 600L900 567Z" fill="#8d48e2" stroke="#8d48e2"></path><path d="M900 89L900 0L834.2 0Z" fill="#df55d1" stroke="#df55d1"></path><path d="M0 562L0 600L104.8 573Z" fill="#6148e7" stroke="#6148e7"></path><path d="M105.8 0L0 0L0 39Z" fill="#7948e5" stroke="#7948e5"></path></g></svg>